mtllib ./Kinect_virtual2.unity_12.mtl
g Block(Clone)
v -1.37663 -1.771818 0.3403552
v -0.8266299 -1.771818 0.3403552
v -1.37663 -1.221818 0.3403552
v -0.8266299 -1.221818 0.3403552
v -1.37663 -1.221818 -0.209645
v -0.8266299 -1.221818 -0.209645
v -1.37663 -1.771818 -0.209645
v -0.8266299 -1.771818 -0.209645
v -1.37663 -1.221818 0.3403552
v -0.8266299 -1.221818 0.3403552
v -1.37663 -1.221818 -0.209645
v -0.8266299 -1.221818 -0.209645
v -1.37663 -1.771818 -0.209645
v -0.8266299 -1.771818 0.3403552
v -0.8266299 -1.771818 -0.209645
v -1.37663 -1.771818 0.3403552
v -0.8266299 -1.771818 0.3403552
v -0.8266299 -1.221818 -0.209645
v -0.8266299 -1.771818 -0.209645
v -0.8266299 -1.221818 0.3403552
v -1.37663 -1.771818 -0.209645
v -1.37663 -1.221818 0.3403552
v -1.37663 -1.771818 0.3403552
v -1.37663 -1.221818 -0.209645

vn 0 0 1
vn 0 0 1
vn 0 0 1
vn 0 0 1
vn 0 1 0
vn 0 1 0
vn 0 0 -1
vn 0 0 -1
vn 0 1 0
vn 0 1 0
vn 0 0 -1
vn 0 0 -1
vn 0 -1 0
vn 0 -1 0
vn 0 -1 0
vn 0 -1 0
vn 1 0 0
vn 1 0 0
vn 1 0 0
vn 1 0 0
vn -1 0 0
vn -1 0 0
vn -1 0 0
vn -1 0 0

vt 0 0
vt 1 0
vt 0 1
vt 1 1
vt 0 1
vt 1 1
vt 0 1
vt 1 1
vt 0 0
vt 1 0
vt 0 0
vt 1 0
vt 0 0
vt 1 1
vt 1 0
vt 0 1
vt 0 0
vt 1 1
vt 1 0
vt 0 1
vt 0 0
vt 1 1
vt 1 0
vt 0 1

usemtl green
usemap green
f 4/4/4 1/1/1 2/2/2
f 3/3/3 1/1/1 4/4/4
f 6/6/6 9/9/9 10/10/10
f 5/5/5 9/9/9 6/6/6
f 8/8/8 11/11/11 12/12/12
f 7/7/7 11/11/11 8/8/8
f 14/14/14 13/13/13 15/15/15
f 16/16/16 13/13/13 14/14/14
f 18/18/18 17/17/17 19/19/19
f 20/20/20 17/17/17 18/18/18
f 22/22/22 21/21/21 23/23/23
f 24/24/24 21/21/21 22/22/22
g Block(Clone)
v -1.499459 -1.234601 0.02708077
v -0.9494586 -1.234601 0.02708077
v -1.499459 -0.6846013 0.02708077
v -0.9494586 -0.6846013 0.02708077
v -1.499459 -0.6846013 -0.5229194
v -0.9494586 -0.6846013 -0.5229194
v -1.499459 -1.234601 -0.5229194
v -0.9494586 -1.234601 -0.5229194
v -1.499459 -0.6846013 0.02708077
v -0.9494586 -0.6846013 0.02708077
v -1.499459 -0.6846013 -0.5229194
v -0.9494586 -0.6846013 -0.5229194
v -1.499459 -1.234601 -0.5229194
v -0.9494586 -1.234601 0.02708077
v -0.9494586 -1.234601 -0.5229194
v -1.499459 -1.234601 0.02708077
v -0.9494586 -1.234601 0.02708077
v -0.9494586 -0.6846013 -0.5229194
v -0.9494586 -1.234601 -0.5229194
v -0.9494586 -0.6846013 0.02708077
v -1.499459 -1.234601 -0.5229194
v -1.499459 -0.6846013 0.02708077
v -1.499459 -1.234601 0.02708077
v -1.499459 -0.6846013 -0.5229194

vn 0 0 1
vn 0 0 1
vn 0 0 1
vn 0 0 1
vn 0 1 0
vn 0 1 0
vn 0 0 -1
vn 0 0 -1
vn 0 1 0
vn 0 1 0
vn 0 0 -1
vn 0 0 -1
vn 0 -1 0
vn 0 -1 0
vn 0 -1 0
vn 0 -1 0
vn 1 0 0
vn 1 0 0
vn 1 0 0
vn 1 0 0
vn -1 0 0
vn -1 0 0
vn -1 0 0
vn -1 0 0

vt 0 0
vt 1 0
vt 0 1
vt 1 1
vt 0 1
vt 1 1
vt 0 1
vt 1 1
vt 0 0
vt 1 0
vt 0 0
vt 1 0
vt 0 0
vt 1 1
vt 1 0
vt 0 1
vt 0 0
vt 1 1
vt 1 0
vt 0 1
vt 0 0
vt 1 1
vt 1 0
vt 0 1

usemtl green
usemap green
f 28/28/28 25/25/25 26/26/26
f 27/27/27 25/25/25 28/28/28
f 30/30/30 33/33/33 34/34/34
f 29/29/29 33/33/33 30/30/30
f 32/32/32 35/35/35 36/36/36
f 31/31/31 35/35/35 32/32/32
f 38/38/38 37/37/37 39/39/39
f 40/40/40 37/37/37 38/38/38
f 42/42/42 41/41/41 43/43/43
f 44/44/44 41/41/41 42/42/42
f 46/46/46 45/45/45 47/47/47
f 48/48/48 45/45/45 46/46/46
g Block(Clone)
v -0.01731503 -1.771675 0.8604029
v 0.5326849 -1.771675 0.8604029
v -0.01731503 -1.221675 0.8604029
v 0.5326849 -1.221675 0.8604029
v -0.01731503 -1.221675 0.3104029
v 0.5326849 -1.221675 0.3104029
v -0.01731503 -1.771675 0.3104029
v 0.5326849 -1.771675 0.3104029
v -0.01731503 -1.221675 0.8604029
v 0.5326849 -1.221675 0.8604029
v -0.01731503 -1.221675 0.3104029
v 0.5326849 -1.221675 0.3104029
v -0.01731503 -1.771675 0.3104029
v 0.5326849 -1.771675 0.8604029
v 0.5326849 -1.771675 0.3104029
v -0.01731503 -1.771675 0.8604029
v 0.5326849 -1.771675 0.8604029
v 0.5326849 -1.221675 0.3104029
v 0.5326849 -1.771675 0.3104029
v 0.5326849 -1.221675 0.8604029
v -0.01731503 -1.771675 0.3104029
v -0.01731503 -1.221675 0.8604029
v -0.01731503 -1.771675 0.8604029
v -0.01731503 -1.221675 0.3104029

vn 0 0 1
vn 0 0 1
vn 0 0 1
vn 0 0 1
vn 0 1 0
vn 0 1 0
vn 0 0 -1
vn 0 0 -1
vn 0 1 0
vn 0 1 0
vn 0 0 -1
vn 0 0 -1
vn 0 -1 0
vn 0 -1 0
vn 0 -1 0
vn 0 -1 0
vn 1 0 0
vn 1 0 0
vn 1 0 0
vn 1 0 0
vn -1 0 0
vn -1 0 0
vn -1 0 0
vn -1 0 0

vt 0 0
vt 1 0
vt 0 1
vt 1 1
vt 0 1
vt 1 1
vt 0 1
vt 1 1
vt 0 0
vt 1 0
vt 0 0
vt 1 0
vt 0 0
vt 1 1
vt 1 0
vt 0 1
vt 0 0
vt 1 1
vt 1 0
vt 0 1
vt 0 0
vt 1 1
vt 1 0
vt 0 1

usemtl green
usemap green
f 52/52/52 49/49/49 50/50/50
f 51/51/51 49/49/49 52/52/52
f 54/54/54 57/57/57 58/58/58
f 53/53/53 57/57/57 54/54/54
f 56/56/56 59/59/59 60/60/60
f 55/55/55 59/59/59 56/56/56
f 62/62/62 61/61/61 63/63/63
f 64/64/64 61/61/61 62/62/62
f 66/66/66 65/65/65 67/67/67
f 68/68/68 65/65/65 66/66/66
f 70/70/70 69/69/69 71/71/71
f 72/72/72 69/69/69 70/70/70
g Block(Clone)
v -0.202453 -1.253661 0.8821539
v 0.3475469 -1.253661 0.8821539
v -0.202453 -0.7036614 0.8821539
v 0.3475469 -0.7036614 0.8821539
v -0.202453 -0.7036614 0.3321538
v 0.3475469 -0.7036614 0.3321538
v -0.202453 -1.253661 0.3321538
v 0.3475469 -1.253661 0.3321538
v -0.202453 -0.7036614 0.8821539
v 0.3475469 -0.7036614 0.8821539
v -0.202453 -0.7036614 0.3321538
v 0.3475469 -0.7036614 0.3321538
v -0.202453 -1.253661 0.3321538
v 0.3475469 -1.253661 0.8821539
v 0.3475469 -1.253661 0.3321538
v -0.202453 -1.253661 0.8821539
v 0.3475469 -1.253661 0.8821539
v 0.3475469 -0.7036614 0.3321538
v 0.3475469 -1.253661 0.3321538
v 0.3475469 -0.7036614 0.8821539
v -0.202453 -1.253661 0.3321538
v -0.202453 -0.7036614 0.8821539
v -0.202453 -1.253661 0.8821539
v -0.202453 -0.7036614 0.3321538

vn 0 0 1
vn 0 0 1
vn 0 0 1
vn 0 0 1
vn 0 1 0
vn 0 1 0
vn 0 0 -1
vn 0 0 -1
vn 0 1 0
vn 0 1 0
vn 0 0 -1
vn 0 0 -1
vn 0 -1 0
vn 0 -1 0
vn 0 -1 0
vn 0 -1 0
vn 1 0 0
vn 1 0 0
vn 1 0 0
vn 1 0 0
vn -1 0 0
vn -1 0 0
vn -1 0 0
vn -1 0 0

vt 0 0
vt 1 0
vt 0 1
vt 1 1
vt 0 1
vt 1 1
vt 0 1
vt 1 1
vt 0 0
vt 1 0
vt 0 0
vt 1 0
vt 0 0
vt 1 1
vt 1 0
vt 0 1
vt 0 0
vt 1 1
vt 1 0
vt 0 1
vt 0 0
vt 1 1
vt 1 0
vt 0 1

usemtl green
usemap green
f 76/76/76 73/73/73 74/74/74
f 75/75/75 73/73/73 76/76/76
f 78/78/78 81/81/81 82/82/82
f 77/77/77 81/81/81 78/78/78
f 80/80/80 83/83/83 84/84/84
f 79/79/79 83/83/83 80/80/80
f 86/86/86 85/85/85 87/87/87
f 88/88/88 85/85/85 86/86/86
f 90/90/90 89/89/89 91/91/91
f 92/92/92 89/89/89 90/90/90
f 94/94/94 93/93/93 95/95/95
f 96/96/96 93/93/93 94/94/94
g Block(Clone)
v -0.8115916 -0.6990935 1.161493
v -0.2615917 -0.6990935 1.161493
v -0.8115916 -0.1490935 1.161493
v -0.2615917 -0.1490935 1.161493
v -0.8115916 -0.1490935 0.611493
v -0.2615917 -0.1490935 0.611493
v -0.8115916 -0.6990935 0.611493
v -0.2615917 -0.6990935 0.611493
v -0.8115916 -0.1490935 1.161493
v -0.2615917 -0.1490935 1.161493
v -0.8115916 -0.1490935 0.611493
v -0.2615917 -0.1490935 0.611493
v -0.8115916 -0.6990935 0.611493
v -0.2615917 -0.6990935 1.161493
v -0.2615917 -0.6990935 0.611493
v -0.8115916 -0.6990935 1.161493
v -0.2615917 -0.6990935 1.161493
v -0.2615917 -0.1490935 0.611493
v -0.2615917 -0.6990935 0.611493
v -0.2615917 -0.1490935 1.161493
v -0.8115916 -0.6990935 0.611493
v -0.8115916 -0.1490935 1.161493
v -0.8115916 -0.6990935 1.161493
v -0.8115916 -0.1490935 0.611493

vn 0 0 1
vn 0 0 1
vn 0 0 1
vn 0 0 1
vn 0 1 0
vn 0 1 0
vn 0 0 -1
vn 0 0 -1
vn 0 1 0
vn 0 1 0
vn 0 0 -1
vn 0 0 -1
vn 0 -1 0
vn 0 -1 0
vn 0 -1 0
vn 0 -1 0
vn 1 0 0
vn 1 0 0
vn 1 0 0
vn 1 0 0
vn -1 0 0
vn -1 0 0
vn -1 0 0
vn -1 0 0

vt 0 0
vt 1 0
vt 0 1
vt 1 1
vt 0 1
vt 1 1
vt 0 1
vt 1 1
vt 0 0
vt 1 0
vt 0 0
vt 1 0
vt 0 0
vt 1 1
vt 1 0
vt 0 1
vt 0 0
vt 1 1
vt 1 0
vt 0 1
vt 0 0
vt 1 1
vt 1 0
vt 0 1

usemtl green
usemap green
f 100/100/100 97/97/97 98/98/98
f 99/99/99 97/97/97 100/100/100
f 102/102/102 105/105/105 106/106/106
f 101/101/101 105/105/105 102/102/102
f 104/104/104 107/107/107 108/108/108
f 103/103/103 107/107/107 104/104/104
f 110/110/110 109/109/109 111/111/111
f 112/112/112 109/109/109 110/110/110
f 114/114/114 113/113/113 115/115/115
f 116/116/116 113/113/113 114/114/114
f 118/118/118 117/117/117 119/119/119
f 120/120/120 117/117/117 118/118/118
g Block(Clone)
v -0.8981218 -0.1691574 0.7667359
v -0.3481219 -0.1691574 0.7667359
v -0.8981218 0.3808426 0.7667359
v -0.3481219 0.3808426 0.7667359
v -0.8981218 0.3808426 0.2167358
v -0.3481219 0.3808426 0.2167358
v -0.8981218 -0.1691574 0.2167358
v -0.3481219 -0.1691574 0.2167358
v -0.8981218 0.3808426 0.7667359
v -0.3481219 0.3808426 0.7667359
v -0.8981218 0.3808426 0.2167358
v -0.3481219 0.3808426 0.2167358
v -0.8981218 -0.1691574 0.2167358
v -0.3481219 -0.1691574 0.7667359
v -0.3481219 -0.1691574 0.2167358
v -0.8981218 -0.1691574 0.7667359
v -0.3481219 -0.1691574 0.7667359
v -0.3481219 0.3808426 0.2167358
v -0.3481219 -0.1691574 0.2167358
v -0.3481219 0.3808426 0.7667359
v -0.8981218 -0.1691574 0.2167358
v -0.8981218 0.3808426 0.7667359
v -0.8981218 -0.1691574 0.7667359
v -0.8981218 0.3808426 0.2167358

vn 0 0 1
vn 0 0 1
vn 0 0 1
vn 0 0 1
vn 0 1 0
vn 0 1 0
vn 0 0 -1
vn 0 0 -1
vn 0 1 0
vn 0 1 0
vn 0 0 -1
vn 0 0 -1
vn 0 -1 0
vn 0 -1 0
vn 0 -1 0
vn 0 -1 0
vn 1 0 0
vn 1 0 0
vn 1 0 0
vn 1 0 0
vn -1 0 0
vn -1 0 0
vn -1 0 0
vn -1 0 0

vt 0 0
vt 1 0
vt 0 1
vt 1 1
vt 0 1
vt 1 1
vt 0 1
vt 1 1
vt 0 0
vt 1 0
vt 0 0
vt 1 0
vt 0 0
vt 1 1
vt 1 0
vt 0 1
vt 0 0
vt 1 1
vt 1 0
vt 0 1
vt 0 0
vt 1 1
vt 1 0
vt 0 1

usemtl green
usemap green
f 124/124/124 121/121/121 122/122/122
f 123/123/123 121/121/121 124/124/124
f 126/126/126 129/129/129 130/130/130
f 125/125/125 129/129/129 126/126/126
f 128/128/128 131/131/131 132/132/132
f 127/127/127 131/131/131 128/128/128
f 134/134/134 133/133/133 135/135/135
f 136/136/136 133/133/133 134/134/134
f 138/138/138 137/137/137 139/139/139
f 140/140/140 137/137/137 138/138/138
f 142/142/142 141/141/141 143/143/143
f 144/144/144 141/141/141 142/142/142
g Block(Clone)
v -0.9162915 0.347294 0.7918342
v -0.3662914 0.347294 0.7918342
v -0.9162915 0.897294 0.7918342
v -0.3662914 0.897294 0.7918342
v -0.9162915 0.897294 0.2418342
v -0.3662914 0.897294 0.2418342
v -0.9162915 0.347294 0.2418342
v -0.3662914 0.347294 0.2418342
v -0.9162915 0.897294 0.7918342
v -0.3662914 0.897294 0.7918342
v -0.9162915 0.897294 0.2418342
v -0.3662914 0.897294 0.2418342
v -0.9162915 0.347294 0.2418342
v -0.3662914 0.347294 0.7918342
v -0.3662914 0.347294 0.2418342
v -0.9162915 0.347294 0.7918342
v -0.3662914 0.347294 0.7918342
v -0.3662914 0.897294 0.2418342
v -0.3662914 0.347294 0.2418342
v -0.3662914 0.897294 0.7918342
v -0.9162915 0.347294 0.2418342
v -0.9162915 0.897294 0.7918342
v -0.9162915 0.347294 0.7918342
v -0.9162915 0.897294 0.2418342

vn 0 0 1
vn 0 0 1
vn 0 0 1
vn 0 0 1
vn 0 1 0
vn 0 1 0
vn 0 0 -1
vn 0 0 -1
vn 0 1 0
vn 0 1 0
vn 0 0 -1
vn 0 0 -1
vn 0 -1 0
vn 0 -1 0
vn 0 -1 0
vn 0 -1 0
vn 1 0 0
vn 1 0 0
vn 1 0 0
vn 1 0 0
vn -1 0 0
vn -1 0 0
vn -1 0 0
vn -1 0 0

vt 0 0
vt 1 0
vt 0 1
vt 1 1
vt 0 1
vt 1 1
vt 0 1
vt 1 1
vt 0 0
vt 1 0
vt 0 0
vt 1 0
vt 0 0
vt 1 1
vt 1 0
vt 0 1
vt 0 0
vt 1 1
vt 1 0
vt 0 1
vt 0 0
vt 1 1
vt 1 0
vt 0 1

usemtl green
usemap green
f 148/148/148 145/145/145 146/146/146
f 147/147/147 145/145/145 148/148/148
f 150/150/150 153/153/153 154/154/154
f 149/149/149 153/153/153 150/150/150
f 152/152/152 155/155/155 156/156/156
f 151/151/151 155/155/155 152/152/152
f 158/158/158 157/157/157 159/159/159
f 160/160/160 157/157/157 158/158/158
f 162/162/162 161/161/161 163/163/163
f 164/164/164 161/161/161 162/162/162
f 166/166/166 165/165/165 167/167/167
f 168/168/168 165/165/165 166/166/166
g Block(Clone)
v -1.350976 0.8666761 1.02388
v -0.8009764 0.8666761 1.02388
v -1.350976 1.416676 1.02388
v -0.8009764 1.416676 1.02388
v -1.350976 1.416676 0.4738801
v -0.8009764 1.416676 0.4738801
v -1.350976 0.8666761 0.4738801
v -0.8009764 0.8666761 0.4738801
v -1.350976 1.416676 1.02388
v -0.8009764 1.416676 1.02388
v -1.350976 1.416676 0.4738801
v -0.8009764 1.416676 0.4738801
v -1.350976 0.8666761 0.4738801
v -0.8009764 0.8666761 1.02388
v -0.8009764 0.8666761 0.4738801
v -1.350976 0.8666761 1.02388
v -0.8009764 0.8666761 1.02388
v -0.8009764 1.416676 0.4738801
v -0.8009764 0.8666761 0.4738801
v -0.8009764 1.416676 1.02388
v -1.350976 0.8666761 0.4738801
v -1.350976 1.416676 1.02388
v -1.350976 0.8666761 1.02388
v -1.350976 1.416676 0.4738801

vn 0 0 1
vn 0 0 1
vn 0 0 1
vn 0 0 1
vn 0 1 0
vn 0 1 0
vn 0 0 -1
vn 0 0 -1
vn 0 1 0
vn 0 1 0
vn 0 0 -1
vn 0 0 -1
vn 0 -1 0
vn 0 -1 0
vn 0 -1 0
vn 0 -1 0
vn 1 0 0
vn 1 0 0
vn 1 0 0
vn 1 0 0
vn -1 0 0
vn -1 0 0
vn -1 0 0
vn -1 0 0

vt 0 0
vt 1 0
vt 0 1
vt 1 1
vt 0 1
vt 1 1
vt 0 1
vt 1 1
vt 0 0
vt 1 0
vt 0 0
vt 1 0
vt 0 0
vt 1 1
vt 1 0
vt 0 1
vt 0 0
vt 1 1
vt 1 0
vt 0 1
vt 0 0
vt 1 1
vt 1 0
vt 0 1

usemtl green
usemap green
f 172/172/172 169/169/169 170/170/170
f 171/171/171 169/169/169 172/172/172
f 174/174/174 177/177/177 178/178/178
f 173/173/173 177/177/177 174/174/174
f 176/176/176 179/179/179 180/180/180
f 175/175/175 179/179/179 176/176/176
f 182/182/182 181/181/181 183/183/183
f 184/184/184 181/181/181 182/182/182
f 186/186/186 185/185/185 187/187/187
f 188/188/188 185/185/185 186/186/186
f 190/190/190 189/189/189 191/191/191
f 192/192/192 189/189/189 190/190/190
g Block(Clone)
v -0.3225707 1.004451 0.955915
v 0.2274293 1.004451 0.955915
v -0.3225707 1.554451 0.955915
v 0.2274293 1.554451 0.955915
v -0.3225707 1.554451 0.405915
v 0.2274293 1.554451 0.405915
v -0.3225707 1.004451 0.405915
v 0.2274293 1.004451 0.405915
v -0.3225707 1.554451 0.955915
v 0.2274293 1.554451 0.955915
v -0.3225707 1.554451 0.405915
v 0.2274293 1.554451 0.405915
v -0.3225707 1.004451 0.405915
v 0.2274293 1.004451 0.955915
v 0.2274293 1.004451 0.405915
v -0.3225707 1.004451 0.955915
v 0.2274293 1.004451 0.955915
v 0.2274293 1.554451 0.405915
v 0.2274293 1.004451 0.405915
v 0.2274293 1.554451 0.955915
v -0.3225707 1.004451 0.405915
v -0.3225707 1.554451 0.955915
v -0.3225707 1.004451 0.955915
v -0.3225707 1.554451 0.405915

vn 0 0 1
vn 0 0 1
vn 0 0 1
vn 0 0 1
vn 0 1 0
vn 0 1 0
vn 0 0 -1
vn 0 0 -1
vn 0 1 0
vn 0 1 0
vn 0 0 -1
vn 0 0 -1
vn 0 -1 0
vn 0 -1 0
vn 0 -1 0
vn 0 -1 0
vn 1 0 0
vn 1 0 0
vn 1 0 0
vn 1 0 0
vn -1 0 0
vn -1 0 0
vn -1 0 0
vn -1 0 0

vt 0 0
vt 1 0
vt 0 1
vt 1 1
vt 0 1
vt 1 1
vt 0 1
vt 1 1
vt 0 0
vt 1 0
vt 0 0
vt 1 0
vt 0 0
vt 1 1
vt 1 0
vt 0 1
vt 0 0
vt 1 1
vt 1 0
vt 0 1
vt 0 0
vt 1 1
vt 1 0
vt 0 1

usemtl green
usemap green
f 196/196/196 193/193/193 194/194/194
f 195/195/195 193/193/193 196/196/196
f 198/198/198 201/201/201 202/202/202
f 197/197/197 201/201/201 198/198/198
f 200/200/200 203/203/203 204/204/204
f 199/199/199 203/203/203 200/200/200
f 206/206/206 205/205/205 207/207/207
f 208/208/208 205/205/205 206/206/206
f 210/210/210 209/209/209 211/211/211
f 212/212/212 209/209/209 210/210/210
f 214/214/214 213/213/213 215/215/215
f 216/216/216 213/213/213 214/214/214
g Block(Clone)
v -0.8647795 0.9361553 0.8682798
v -0.3147795 0.9361553 0.8682798
v -0.8647795 1.486156 0.8682798
v -0.3147795 1.486156 0.8682798
v -0.8647795 1.486156 0.3182797
v -0.3147795 1.486156 0.3182797
v -0.8647795 0.9361553 0.3182797
v -0.3147795 0.9361553 0.3182797
v -0.8647795 1.486156 0.8682798
v -0.3147795 1.486156 0.8682798
v -0.8647795 1.486156 0.3182797
v -0.3147795 1.486156 0.3182797
v -0.8647795 0.9361553 0.3182797
v -0.3147795 0.9361553 0.8682798
v -0.3147795 0.9361553 0.3182797
v -0.8647795 0.9361553 0.8682798
v -0.3147795 0.9361553 0.8682798
v -0.3147795 1.486156 0.3182797
v -0.3147795 0.9361553 0.3182797
v -0.3147795 1.486156 0.8682798
v -0.8647795 0.9361553 0.3182797
v -0.8647795 1.486156 0.8682798
v -0.8647795 0.9361553 0.8682798
v -0.8647795 1.486156 0.3182797

vn 0 0 1
vn 0 0 1
vn 0 0 1
vn 0 0 1
vn 0 1 0
vn 0 1 0
vn 0 0 -1
vn 0 0 -1
vn 0 1 0
vn 0 1 0
vn 0 0 -1
vn 0 0 -1
vn 0 -1 0
vn 0 -1 0
vn 0 -1 0
vn 0 -1 0
vn 1 0 0
vn 1 0 0
vn 1 0 0
vn 1 0 0
vn -1 0 0
vn -1 0 0
vn -1 0 0
vn -1 0 0

vt 0 0
vt 1 0
vt 0 1
vt 1 1
vt 0 1
vt 1 1
vt 0 1
vt 1 1
vt 0 0
vt 1 0
vt 0 0
vt 1 0
vt 0 0
vt 1 1
vt 1 0
vt 0 1
vt 0 0
vt 1 1
vt 1 0
vt 0 1
vt 0 0
vt 1 1
vt 1 0
vt 0 1

usemtl green
usemap green
f 220/220/220 217/217/217 218/218/218
f 219/219/219 217/217/217 220/220/220
f 222/222/222 225/225/225 226/226/226
f 221/221/221 225/225/225 222/222/222
f 224/224/224 227/227/227 228/228/228
f 223/223/223 227/227/227 224/224/224
f 230/230/230 229/229/229 231/231/231
f 232/232/232 229/229/229 230/230/230
f 234/234/234 233/233/233 235/235/235
f 236/236/236 233/233/233 234/234/234
f 238/238/238 237/237/237 239/239/239
f 240/240/240 237/237/237 238/238/238
g Block(Clone)
v -0.9020431 1.459123 1.054431
v -0.352043 1.459123 1.054431
v -0.9020431 2.009123 1.054431
v -0.352043 2.009123 1.054431
v -0.9020431 2.009123 0.5044312
v -0.352043 2.009123 0.5044312
v -0.9020431 1.459123 0.5044312
v -0.352043 1.459123 0.5044312
v -0.9020431 2.009123 1.054431
v -0.352043 2.009123 1.054431
v -0.9020431 2.009123 0.5044312
v -0.352043 2.009123 0.5044312
v -0.9020431 1.459123 0.5044312
v -0.352043 1.459123 1.054431
v -0.352043 1.459123 0.5044312
v -0.9020431 1.459123 1.054431
v -0.352043 1.459123 1.054431
v -0.352043 2.009123 0.5044312
v -0.352043 1.459123 0.5044312
v -0.352043 2.009123 1.054431
v -0.9020431 1.459123 0.5044312
v -0.9020431 2.009123 1.054431
v -0.9020431 1.459123 1.054431
v -0.9020431 2.009123 0.5044312

vn 0 0 1
vn 0 0 1
vn 0 0 1
vn 0 0 1
vn 0 1 0
vn 0 1 0
vn 0 0 -1
vn 0 0 -1
vn 0 1 0
vn 0 1 0
vn 0 0 -1
vn 0 0 -1
vn 0 -1 0
vn 0 -1 0
vn 0 -1 0
vn 0 -1 0
vn 1 0 0
vn 1 0 0
vn 1 0 0
vn 1 0 0
vn -1 0 0
vn -1 0 0
vn -1 0 0
vn -1 0 0

vt 0 0
vt 1 0
vt 0 1
vt 1 1
vt 0 1
vt 1 1
vt 0 1
vt 1 1
vt 0 0
vt 1 0
vt 0 0
vt 1 0
vt 0 0
vt 1 1
vt 1 0
vt 0 1
vt 0 0
vt 1 1
vt 1 0
vt 0 1
vt 0 0
vt 1 1
vt 1 0
vt 0 1

usemtl green
usemap green
f 244/244/244 241/241/241 242/242/242
f 243/243/243 241/241/241 244/244/244
f 246/246/246 249/249/249 250/250/250
f 245/245/245 249/249/249 246/246/246
f 248/248/248 251/251/251 252/252/252
f 247/247/247 251/251/251 248/248/248
f 254/254/254 253/253/253 255/255/255
f 256/256/256 253/253/253 254/254/254
f 258/258/258 257/257/257 259/259/259
f 260/260/260 257/257/257 258/258/258
f 262/262/262 261/261/261 263/263/263
f 264/264/264 261/261/261 262/262/262
g Block2(Clone)
v -1.138478 -0.7206343 0.614658
v -0.03847766 -0.7206343 0.614658
v -1.138478 -0.1706344 0.614658
v -0.03847766 -0.1706344 0.614658
v -1.138478 -0.1706344 0.06465793
v -0.03847766 -0.1706344 0.06465793
v -1.138478 -0.7206343 0.06465793
v -0.03847766 -0.7206343 0.06465793
v -1.138478 -0.1706344 0.614658
v -0.03847766 -0.1706344 0.614658
v -1.138478 -0.1706344 0.06465793
v -0.03847766 -0.1706344 0.06465793
v -1.138478 -0.7206343 0.06465793
v -0.03847766 -0.7206343 0.614658
v -0.03847766 -0.7206343 0.06465793
v -1.138478 -0.7206343 0.614658
v -0.03847766 -0.7206343 0.614658
v -0.03847766 -0.1706344 0.06465793
v -0.03847766 -0.7206343 0.06465793
v -0.03847766 -0.1706344 0.614658
v -1.138478 -0.7206343 0.06465793
v -1.138478 -0.1706344 0.614658
v -1.138478 -0.7206343 0.614658
v -1.138478 -0.1706344 0.06465793

vn 0 0 1
vn 0 0 1
vn 0 0 1
vn 0 0 1
vn 0 1 0
vn 0 1 0
vn 0 0 -1
vn 0 0 -1
vn 0 1 0
vn 0 1 0
vn 0 0 -1
vn 0 0 -1
vn 0 -1 0
vn 0 -1 0
vn 0 -1 0
vn 0 -1 0
vn 1 0 0
vn 1 0 0
vn 1 0 0
vn 1 0 0
vn -1 0 0
vn -1 0 0
vn -1 0 0
vn -1 0 0

vt 0 0
vt 1 0
vt 0 1
vt 1 1
vt 0 1
vt 1 1
vt 0 1
vt 1 1
vt 0 0
vt 1 0
vt 0 0
vt 1 0
vt 0 0
vt 1 1
vt 1 0
vt 0 1
vt 0 0
vt 1 1
vt 1 0
vt 0 1
vt 0 0
vt 1 1
vt 1 0
vt 0 1

usemtl Red
usemap Red
f 268/268/268 265/265/265 266/266/266
f 267/267/267 265/265/265 268/268/268
f 270/270/270 273/273/273 274/274/274
f 269/269/269 273/273/273 270/270/270
f 272/272/272 275/275/275 276/276/276
f 271/271/271 275/275/275 272/272/272
f 278/278/278 277/277/277 279/279/279
f 280/280/280 277/277/277 278/278/278
f 282/282/282 281/281/281 283/283/283
f 284/284/284 281/281/281 282/282/282
f 286/286/286 285/285/285 287/287/287
f 288/288/288 285/285/285 286/286/286
